<svg width="31" height="25" viewBox="0 0 31 25" fill="none" xmlns="http://www.w3.org/2000/svg">
<path fill-rule="evenodd" clip-rule="evenodd" d="M0 4C0 2.11438 0 1.17157 0.585786 0.585786C1.17157 0 2.11438 0 4 0H8.84713C9.77232 0 10.2349 0 10.6393 0.19025C11.0438 0.380499 11.3387 0.736869 11.9286 1.44961L15.3269 5.55556H0V4ZM0 5.55559H27.4538C28.5739 5.55559 29.134 5.55559 29.5618 5.77357C29.9381 5.96532 30.2441 6.27128 30.4358 6.64761C30.6538 7.07543 30.6538 7.63548 30.6538 8.75559V21.8C30.6538 22.9201 30.6538 23.4802 30.4358 23.908C30.2441 24.2843 29.9381 24.5903 29.5618 24.782C29.134 25 28.5739 25 27.4538 25H3.2C2.0799 25 1.51984 25 1.09202 24.782C0.715695 24.5903 0.409734 24.2843 0.217987 23.908C0 23.4802 0 22.9201 0 21.8V5.55559ZM22.1292 14.5368L17.5312 10.3701L16.1882 11.8521L18.865 14.2778H10.7289V16.2778H18.865L16.1882 18.7034L17.5312 20.1855L22.1292 16.0188L22.947 15.2778L22.1292 14.5368Z" fill="#CECECE"/>
</svg>
