<svg width="44" height="53" viewBox="0 0 44 53" fill="none" xmlns="http://www.w3.org/2000/svg">
<g style="mix-blend-mode:lighten">
<g style="mix-blend-mode:lighten">
<path fill-rule="evenodd" clip-rule="evenodd" d="M23.6084 15.4523L28.1115 10.1236C29.5294 8.44578 30.2383 7.60687 31.1667 7.60687C32.095 7.60687 32.804 8.44578 34.2218 10.1236L36.3182 12.6042C37.3604 13.8375 37.8815 14.4542 37.8815 15.1861C37.8815 15.918 37.3604 16.5346 36.3182 17.7679L31.0282 24.0277C27.934 21.7678 25.3965 18.8321 23.6084 15.4523ZM22.225 17.0892L8.0398 33.8751C7.68869 34.2906 7.51313 34.4983 7.40001 34.742C7.2869 34.9858 7.24157 35.2539 7.15092 35.7903L5.62566 44.8147C5.56886 45.1508 5.54046 45.3189 5.63838 45.4106C5.73631 45.5024 5.90214 45.4631 6.2338 45.3846H6.23382L13.3837 43.6925C14.0197 43.542 14.3376 43.4667 14.6113 43.2987C14.8849 43.1306 15.0958 42.881 15.5176 42.3819L29.7343 25.5588C26.6616 23.29 24.1039 20.4011 22.225 17.0892Z" fill="#9290C3"/>
</g>
</g>
</svg>
