<svg width="39" height="26" viewBox="0 0 39 26" fill="none" xmlns="http://www.w3.org/2000/svg">
<path fill-rule="evenodd" clip-rule="evenodd" d="M0 4.2727C0 2.38709 0 1.44428 0.585786 0.858492C1.17157 0.272705 2.11438 0.272705 4 0.272705H11.969C12.7592 0.272705 13.1543 0.272705 13.512 0.415796C13.8696 0.558886 14.1557 0.831417 14.7279 1.37648C16.4618 3.02815 17.3287 3.85398 18.3307 4.44095C19.1914 4.94515 20.1227 5.31773 21.0936 5.54633C22.224 5.81244 23.4213 5.81244 25.8159 5.81244H35.5692C36.6893 5.81244 37.2494 5.81244 37.6772 6.03043C38.0535 6.22218 38.3595 6.52814 38.5512 6.90446C38.7692 7.33229 38.7692 7.89234 38.7692 9.01244V22.0017C38.7692 23.1218 38.7692 23.6818 38.5512 24.1096C38.3595 24.486 38.0535 24.7919 37.6772 24.9837C37.2494 25.2017 36.6893 25.2017 35.5692 25.2017H3.2C2.07989 25.2017 1.51984 25.2017 1.09202 24.9837C0.715695 24.7919 0.409734 24.486 0.217987 24.1096C0 23.6818 0 23.1218 0 22.0016V5.81248V5.81244V4.2727ZM18.8034 11.9235L13.8017 15.497C13.3523 15.8181 13.2483 16.4426 13.5693 16.892C13.8904 17.3414 14.515 17.4454 14.9643 17.1243L15.5891 16.6779C16.7592 15.842 18.3847 16.6784 18.3847 18.1164V20.0468C18.3847 20.5991 18.8324 21.0468 19.3847 21.0468C19.937 21.0468 20.3847 20.5991 20.3847 20.0468V18.1164C20.3847 16.6784 22.0102 15.842 23.1803 16.6779L23.8051 17.1243C24.2545 17.4454 24.879 17.3414 25.2001 16.892C25.5212 16.4426 25.4171 15.8181 24.9678 15.497L19.966 11.9235C19.6183 11.6751 19.1511 11.6751 18.8034 11.9235Z" fill="#CECECE"/>
</svg>
