<svg width="33" height="40" viewBox="0 0 33 40" fill="none" xmlns="http://www.w3.org/2000/svg">
<g style="mix-blend-mode:lighten">
<path fill-rule="evenodd" clip-rule="evenodd" d="M0 5.99999C0 3.17157 0 1.75736 0.87868 0.87868C1.75736 0 3.17157 0 6 0H23.8099C24.7232 0 25.1799 0 25.5804 0.185911C25.9809 0.371821 26.2756 0.720601 26.8651 1.41816L32.0552 7.55974C32.5226 8.1129 32.7564 8.38949 32.8782 8.72235C33 9.05522 33 9.41734 33 10.1416V33.05C33 35.8784 33 37.2926 32.1213 38.1713C31.2426 39.05 29.8284 39.05 27 39.05H24.8333V29.0333L24.8333 28.9717C24.8334 28.3176 24.8335 27.7299 24.7695 27.2542C24.6997 26.7348 24.5375 26.202 24.1011 25.7656C23.6647 25.3291 23.1318 25.167 22.6125 25.0972C22.1368 25.0332 21.5491 25.0333 20.8949 25.0333L20.8333 25.0333H10.3333L10.2717 25.0333C9.6176 25.0333 9.02988 25.0332 8.55418 25.0972C8.03482 25.167 7.50201 25.3291 7.06557 25.7656C6.62913 26.202 6.46699 26.7348 6.39717 27.2542C6.33321 27.7299 6.33327 28.3176 6.33333 28.9717L6.33333 29.0333V39.05H6C3.17157 39.05 1.75736 39.05 0.87868 38.1713C0 37.2926 0 35.8784 0 33.05V5.99999ZM22.8333 29.0333V39.05H8.33333V29.0333C8.33333 28.298 8.33546 27.847 8.37933 27.5207C8.4179 27.2338 8.47275 27.1859 8.47926 27.1803L8.47978 27.1798L8.48025 27.1793C8.48593 27.1728 8.53383 27.1179 8.82067 27.0793C9.14702 27.0355 9.59796 27.0333 10.3333 27.0333H20.8333C21.5687 27.0333 22.0196 27.0355 22.346 27.0793C22.6328 27.1179 22.6807 27.1728 22.6864 27.1793L22.6869 27.1798L22.6874 27.1803C22.6939 27.1859 22.7488 27.2338 22.7873 27.5207C22.8312 27.847 22.8333 28.298 22.8333 29.0333ZM7.33333 9.84722C6.78105 9.84722 6.33333 10.2949 6.33333 10.8472C6.33333 11.3995 6.78105 11.8472 7.33333 11.8472H16.5C17.0523 11.8472 17.5 11.3995 17.5 10.8472C17.5 10.2949 17.0523 9.84722 16.5 9.84722H7.33333Z" fill="#9290C3"/>
</g>
</svg>
