<svg width="40" height="40" viewBox="0 0 40 40" fill="none" xmlns="http://www.w3.org/2000/svg">
<g style="mix-blend-mode:lighten">
<path fill-rule="evenodd" clip-rule="evenodd" d="M23.7659 0.258547C24.0516 0.517095 24.0944 0.945061 24.18 1.80099L24.4621 4.62212C24.6254 6.25566 24.7071 7.07243 25.2599 7.30141C25.8127 7.53039 26.448 7.0106 27.7186 5.97103L29.913 4.17562C30.5788 3.6309 30.9117 3.35855 31.2965 3.37774C31.6813 3.39694 31.9855 3.70106 32.5937 4.30932L35.6909 7.40648C36.2991 8.01473 36.6033 8.31886 36.6225 8.7037C36.6416 9.08853 36.3693 9.42141 35.8246 10.0872L34.0294 12.2813C32.9898 13.5519 32.47 14.1872 32.699 14.74C32.928 15.2928 33.7448 15.3745 35.3783 15.5378L38.199 15.8199C39.0549 15.9055 39.4829 15.9483 39.7414 16.234C40 16.5197 40 16.9498 40 17.81V22.19C40 23.0502 40 23.4803 39.7414 23.766C39.4829 24.0517 39.0549 24.0945 38.199 24.1801L35.3788 24.4621C33.7452 24.6255 32.9285 24.7071 32.6995 25.2599C32.4705 25.8128 32.9903 26.4481 34.0299 27.7187L35.8244 29.912C36.3691 30.5777 36.6415 30.9106 36.6223 31.2955C36.6031 31.6803 36.299 31.9844 35.6907 32.5927L32.5936 35.6898C31.9853 36.2981 31.6812 36.6022 31.2963 36.6214C30.9115 36.6406 30.5786 36.3683 29.9129 35.8235L27.7187 34.0283C26.4481 32.9887 25.8128 32.4689 25.26 32.6979C24.7072 32.9269 24.6255 33.7437 24.4621 35.3772L24.18 38.199C24.0944 39.0549 24.0516 39.4829 23.7659 39.7415C23.4802 40 23.0501 40 22.1899 40H17.8098C16.9496 40 16.5195 40 16.2339 39.7415C15.9482 39.4829 15.9054 39.0549 15.8198 38.199L15.5377 35.3784C15.3744 33.7448 15.2927 32.9281 14.7399 32.6991C14.187 32.4701 13.5517 32.9899 12.2812 34.0295L10.0873 35.8245C9.42154 36.3692 9.08866 36.6415 8.70382 36.6223C8.31899 36.6031 8.01486 36.299 7.40661 35.6908L4.30944 32.5936C3.70119 31.9853 3.39706 31.6812 3.37787 31.2964C3.35868 30.9115 3.63103 30.5787 4.17574 29.9129L5.97096 27.7187C7.01054 26.4481 7.53033 25.8128 7.30135 25.26C7.07236 24.7072 6.25559 24.6255 4.62206 24.4622L1.80099 24.1801H1.80097C0.945054 24.0945 0.517093 24.0517 0.258547 23.766C0 23.4803 0 23.0502 0 22.19V17.81C0 16.9498 0 16.5197 0.258548 16.234C0.517095 15.9483 0.945061 15.9055 1.80099 15.8199L4.62252 15.5377C6.25606 15.3744 7.07282 15.2927 7.30181 14.7399C7.53079 14.1871 7.011 13.5518 5.97143 12.2812L4.17559 10.0863C3.63088 9.4205 3.35852 9.08762 3.37771 8.70279C3.39691 8.31795 3.70104 8.01383 4.30929 7.40557L7.40645 4.30841C8.01471 3.70015 8.31883 3.39603 8.70367 3.37683C9.0885 3.35764 9.42138 3.63 10.0871 4.17471L12.2812 5.96986C13.5518 7.00944 14.1871 7.52923 14.7399 7.30024C15.2927 7.07126 15.3744 6.25449 15.5378 4.62096L15.8198 1.80099C15.9054 0.945061 15.9482 0.517095 16.2339 0.258547C16.5195 0 16.9496 0 17.8098 0H22.1899C23.0501 0 23.4802 0 23.7659 0.258547ZM19.9998 28C24.418 28 27.9998 24.4183 27.9998 20C27.9998 15.5817 24.418 12 19.9998 12C15.5815 12 11.9998 15.5817 11.9998 20C11.9998 24.4183 15.5815 28 19.9998 28Z" fill="#9290C3"/>
</g>
</svg>
