<svg width="82" height="89" viewBox="0 0 82 89" fill="none" xmlns="http://www.w3.org/2000/svg">
<g style="mix-blend-mode:overlay">
<ellipse cx="41.1765" cy="44.7433" rx="40.3529" ry="43.9865" fill="#D9D9D9"/>
<path fill-rule="evenodd" clip-rule="evenodd" d="M36.607 21.2721C36.4595 21.2136 36.2931 21.2286 36.1584 21.3125L19.7944 31.5053C19.6479 31.5966 19.5588 31.757 19.5588 31.9297V35.4732C19.5588 35.6782 19.6839 35.8625 19.8745 35.938L45.6454 46.153C45.7928 46.2115 45.9593 46.1965 46.094 46.1126L62.5584 35.8572C62.705 35.7659 62.7941 35.6055 62.7941 35.4328V31.9917C62.7941 31.7867 62.6689 31.6025 62.4783 31.5269L36.607 21.2721ZM62.7941 38.9672C62.7941 38.5748 62.3628 38.3353 62.0297 38.5428L46.5091 48.2103C46.2397 48.3781 45.9068 48.4081 45.6119 48.2911L20.243 38.2355C19.9148 38.1054 19.5588 38.3472 19.5588 38.7003V48.5645C19.5588 48.7695 19.6839 48.9537 19.8745 49.0293L45.6454 59.2443C45.7928 59.3028 45.9593 59.2878 46.094 59.2039L62.5584 48.9485C62.705 48.8572 62.7941 48.6967 62.7941 48.5241V38.9672ZM19.8745 60.5779C19.6839 60.5024 19.5588 60.3181 19.5588 60.1131V51.7915C19.5588 51.4385 19.9148 51.1966 20.243 51.3267L45.6119 61.3824C45.9068 61.4993 46.2397 61.4693 46.5091 61.3016L62.0297 51.634C62.3628 51.4266 62.7941 51.6661 62.7941 52.0584V60.1751C62.7941 60.3478 62.705 60.5083 62.5584 60.5995L46.1945 70.7924C46.0598 70.8763 45.8933 70.8913 45.7459 70.8328L19.8745 60.5779Z" fill="#222222"/>
</g>
</svg>
