<svg width="81" height="89" viewBox="0 0 81 89" fill="none" xmlns="http://www.w3.org/2000/svg">
<g style="mix-blend-mode:overlay">
<ellipse cx="40.5294" cy="44.7433" rx="40.3529" ry="43.9865" fill="#D9D9D9"/>
<path fill-rule="evenodd" clip-rule="evenodd" d="M53.2402 47.8852H44.7313C43.7372 47.8852 42.9313 48.691 42.9313 49.6852V71.4494H62.749C63.7431 71.4494 64.549 70.6435 64.549 69.6494V49.6852C64.549 48.691 63.7431 47.8852 62.749 47.8852H54.2402V54.4308C54.2402 54.7069 54.0163 54.9308 53.7402 54.9308C53.464 54.9308 53.2402 54.7069 53.2402 54.4308V47.8852Z" fill="#33363F"/>
<path fill-rule="evenodd" clip-rule="evenodd" d="M29.2206 47.8852H20.7117C19.7176 47.8852 18.9117 48.691 18.9117 49.6852V69.6494C18.9117 70.6435 19.7176 71.4494 20.7117 71.4494H40.5294V49.6852C40.5294 48.691 39.7235 47.8852 38.7294 47.8852H30.2206V54.4308C30.2206 54.7069 29.9967 54.9308 29.7206 54.9308C29.4444 54.9308 29.2206 54.7069 29.2206 54.4308V47.8852Z" fill="#33363F"/>
<path fill-rule="evenodd" clip-rule="evenodd" d="M29.2206 21.7027H20.7117C19.7176 21.7027 18.9117 22.5086 18.9117 23.5027V43.4669C18.9117 44.461 19.7176 45.2669 20.7117 45.2669H38.7294C39.7235 45.2669 40.5294 44.461 40.5294 43.4669V23.5027C40.5294 22.5086 39.7235 21.7027 38.7294 21.7027H30.2206V29.5575C30.2206 29.8336 29.9967 30.0575 29.7206 30.0575C29.4444 30.0575 29.2206 29.8336 29.2206 29.5575V21.7027Z" fill="#33363F"/>
</g>
</svg>
