<svg width="87" height="92" viewBox="0 0 87 92" fill="none" xmlns="http://www.w3.org/2000/svg">
<g style="mix-blend-mode:overlay">
<ellipse cx="43.9429" cy="45.7433" rx="43.0606" ry="45.5574" fill="#D9D9D9"/>
<ellipse cx="44.1176" cy="37.8886" rx="7.20588" ry="7.85473" fill="#222222"/>
<path fill-rule="evenodd" clip-rule="evenodd" d="M57.7581 57.2165C57.7966 57.3187 57.7624 57.4339 57.6749 57.4991C54.6625 59.743 50.9947 61.1586 47.0051 61.4124C46.3709 61.4528 45.6199 61.4528 44.1178 61.4528C42.6157 61.4528 41.8647 61.4528 41.2305 61.4124C37.2408 61.1586 33.5729 59.7429 30.5605 57.4989C30.4729 57.4337 30.4387 57.3185 30.4772 57.2163C32.4155 52.0653 37.7904 48.3615 44.1176 48.3615C50.4449 48.3615 55.8199 52.0654 57.7581 57.2165Z" fill="#222222"/>
<path d="M60.7778 18H69.502C70.7134 18 71.319 18 71.7834 18.232C72.2095 18.4449 72.5551 18.7905 72.768 19.2166C73 19.681 73 20.2866 73 21.498V32.75M60.7778 77H69.502C70.7134 77 71.319 77 71.7834 76.768C72.2095 76.5551 72.5551 76.2095 72.768 75.7834C73 75.319 73 74.7134 73 73.502V62.25M30.2222 18H21.498C20.2866 18 19.681 18 19.2166 18.232C18.7905 18.4449 18.4449 18.7905 18.232 19.2166C18 19.681 18 20.2866 18 21.498V32.75M30.2222 77H21.498C20.2866 77 19.681 77 19.2166 76.768C18.7905 76.5551 18.4449 76.2095 18.232 75.7834C18 75.319 18 74.7134 18 73.502V62.25" stroke="#222222" stroke-width="2" stroke-linecap="round"/>
</g>
</svg>
