<svg width="87" height="92" viewBox="0 0 87 92" fill="none" xmlns="http://www.w3.org/2000/svg">
<g style="mix-blend-mode:overlay">
<ellipse cx="43.5312" cy="45.7433" rx="43.0606" ry="45.5574" fill="#D9D9D9"/>
<g filter="url(#filter0_d_47_809)">
<path fill-rule="evenodd" clip-rule="evenodd" d="M33.9249 13.2777C30.9363 13.9883 28.0555 15.3773 25.6001 17.2918C23.7729 18.7168 22.8238 19.8447 21.355 22.3375L20.2106 24.2797L18.4304 24.7572C10.3063 26.9365 4.83587 33.2439 4.79492 40.4793C4.78145 42.8661 4.92081 43.7181 5.64431 45.6653C6.32052 47.4858 7.15414 48.9004 8.57928 50.6462L9.72825 52.0536L9.40248 53.0284C9.22344 53.5647 9.02229 55.1803 8.95617 56.6187C8.8191 59.5879 9.30559 61.7594 10.6598 64.224C14.2478 70.7538 22.2735 74.6193 30.5693 73.8135L32.663 73.6101L33.8117 74.5407C35.4675 75.8817 36.5422 76.5065 38.8058 77.4438C43.269 79.292 49.6449 79.5752 54.2563 78.0158C59.4208 76.2692 63.3875 73.0884 65.3558 69.115C65.7269 68.3663 66.0997 67.6947 66.1844 67.6224C66.2693 67.5503 67.2319 67.2339 68.3239 66.9194C74.4049 65.168 78.8644 61.2886 80.8066 56.0606C81.5301 54.1134 81.6694 53.2615 81.656 50.8746C81.6364 47.405 80.3636 44.1086 77.9161 41.1877L76.757 39.8042L77.157 38.3064C77.7274 36.1709 77.6796 32.715 77.0504 30.6206C75.3529 24.9683 70.6129 20.643 63.9515 18.6675C59.8411 17.5435 56.2443 17.8745 53.6948 18.0097L52.3383 16.9884C50.6283 15.7007 48.1895 14.4519 45.8957 13.6892C42.5971 12.5927 37.3413 12.4655 33.9249 13.2777ZM42.2375 17.3893C44.3271 17.7665 48.7104 19.6394 48.293 19.9769C48.1432 20.0979 41.7024 23.2943 36.4863 25.8359C34.1085 26.9946 31.9654 28.1537 31.7236 28.4118C31.3226 28.8404 31.2839 29.7143 31.2786 38.4643C31.2753 44.1878 31.1781 48.0475 31.0377 48.0475C30.7237 48.0475 25.4173 45.4896 24.8517 45.0656C24.443 44.7591 24.4074 44.0938 24.4156 36.9148C24.4257 27.9367 24.6009 26.5874 26.0904 24.0209C27.3419 21.8645 30.1782 19.4248 32.6081 18.4143C35.6481 17.1502 38.9604 16.7976 42.2375 17.3893ZM61.1643 22.6038C64.6995 23.3692 68.0195 25.291 69.8985 27.6599C71.5236 29.7082 72.2743 31.6036 72.4149 34.0112C72.4823 35.1653 72.4701 36.2588 72.3877 36.4413C72.2255 36.8017 71.2634 36.3591 61.1783 31.2827C58.3941 29.8812 55.7621 28.689 55.3292 28.6331C54.4783 28.5233 55.2133 28.1898 41.7421 34.7995C38.0589 36.6068 34.9976 38.0853 34.9393 38.0853C34.8811 38.0853 34.8333 36.6469 34.8333 34.889C34.8333 31.8691 34.863 31.6766 35.3711 31.4063C35.6669 31.2491 39.3788 29.4238 43.6196 27.3502C51.0706 23.7068 52.9601 22.8951 54.9012 22.5034C56.3943 22.2021 59.5416 22.2526 61.1643 22.6038ZM19.5748 37.4235V45.641L20.147 46.1729C20.4616 46.4653 22.2641 47.4596 24.1523 48.3826C36.8934 54.6103 39.2763 55.8122 39.2165 55.9803C39.1369 56.2038 33.3563 59.0926 32.9885 59.0926C32.8494 59.0926 29.517 57.5151 25.5831 55.5872C21.6489 53.6591 17.9337 51.8429 17.327 51.5512C15.7167 50.7774 13.272 48.7759 12.1719 47.3307C10.57 45.2267 10.0413 43.5773 10.0416 40.6842C10.0418 36.9743 11.1219 34.6906 14.0856 32.1327C15.5051 30.9076 18.495 29.2172 19.2569 29.2092C19.5056 29.2066 19.5748 30.992 19.5748 37.4235ZM54.2947 32.9702C54.5706 33.1345 57.6574 34.6581 61.1542 36.3556C69.6076 40.4596 71.2003 41.3523 72.8661 42.9198C76.9131 46.7282 77.7053 52.3306 74.8512 56.9561C73.4532 59.2217 70.5468 61.5645 68.0177 62.4644L67.1304 62.7801L67.1294 54.7099C67.1286 47.1962 67.0956 46.595 66.6518 45.9901C66.3469 45.5745 65.1788 44.8592 63.4104 44.005C58.8789 41.8166 47.9675 36.4013 47.447 36.0825C47.0032 35.8107 47.2219 35.6597 50.1172 34.2393C51.8516 33.3884 53.3881 32.6873 53.5318 32.6817C53.6757 32.6758 54.019 32.8056 54.2947 32.9702ZM47.4215 39.6734L51.4904 41.686L51.555 45.8955L51.6194 50.1049L47.4935 52.1375L43.3676 54.17L41.7649 53.4369C40.8833 53.0336 38.9917 52.1156 37.5612 51.3966L34.9604 50.0896L34.8915 45.9408L34.8223 41.7919L36.6717 40.8702C37.6886 40.3632 39.5499 39.4317 40.8077 38.8002C42.0658 38.1689 43.153 37.6541 43.2237 37.6565C43.2946 37.6589 45.1836 38.5665 47.4215 39.6734ZM58.5048 45.1427C60.1575 45.9271 61.6384 46.7009 61.7953 46.8618C61.9992 47.0712 62.0539 49.6142 61.9868 55.7767C61.897 64.0278 61.8685 64.4618 61.3202 65.8673C58.8145 72.291 51.3961 75.8858 43.7951 74.3595C42.1289 74.0251 39.7173 73.0843 38.6642 72.3581L38.0462 71.9322L38.6649 71.6038C39.5891 71.1137 46.6889 67.6094 50.6004 65.7131C52.4886 64.7977 54.2909 63.8052 54.6057 63.5076L55.1779 62.9666V53.3414C55.1779 48.0475 55.2504 43.7161 55.3386 43.7161C55.4271 43.7161 56.8518 44.3581 58.5048 45.1427ZM51.4317 60.2038C50.9071 60.6506 34.6286 68.4402 33.3585 68.8523C31.5522 69.4383 27.838 69.6506 25.6894 69.2904C20.7741 68.467 16.678 65.4506 14.8185 61.2849C14.0856 59.6431 13.6385 55.1943 14.2064 55.1943C14.5019 55.1943 16.4048 56.1096 25.845 60.7914C28.8219 62.2677 30.9871 63.2074 31.4121 63.2074C32.1007 63.2074 33.1103 62.7368 45.5142 56.635L51.4904 53.695L51.5611 56.8643C51.5998 58.6073 51.5416 60.1103 51.4317 60.2038Z" fill="black"/>
</g>
</g>
<defs>
<filter id="filter0_d_47_809" x="0.794067" y="12.7534" width="84.8627" height="74.2743" filterUnits="userSpaceOnUse" color-interpolation-filters="sRGB">
<feFlood flood-opacity="0" result="BackgroundImageFix"/>
<feColorMatrix in="SourceAlpha" type="matrix" values="0 0 0 0 0 0 0 0 0 0 0 0 0 0 0 0 0 0 127 0" result="hardAlpha"/>
<feOffset dy="4"/>
<feGaussianBlur stdDeviation="2"/>
<feComposite in2="hardAlpha" operator="out"/>
<feColorMatrix type="matrix" values="0 0 0 0 0 0 0 0 0 0 0 0 0 0 0 0 0 0 0.25 0"/>
<feBlend mode="normal" in2="BackgroundImageFix" result="effect1_dropShadow_47_809"/>
<feBlend mode="normal" in="SourceGraphic" in2="effect1_dropShadow_47_809" result="shape"/>
</filter>
</defs>
</svg>
